<svg width="100" height="100" viewBox="0 0 100 100" fill="none" xmlns="http://www.w3.org/2000/svg">
    <!-- Rays -->
    <g id="rays">
        <path d="M74.79 46.74L95.00 50.00L74.79 53.26Z" fill="#FFA500" stroke="#B8860B" stroke-width="1"/>
        <path d="M73.10 59.57L88.97 72.50L69.83 65.22Z" fill="#FFA500" stroke="#B8860B" stroke-width="1"/>
        <path d="M65.22 69.83L72.50 88.97L59.57 73.10Z" fill="#FFA500" stroke="#B8860B" stroke-width="1"/>
        <path d="M53.26 74.79L50.00 95.00L46.74 74.79Z" fill="#FFA500" stroke="#B8860B" stroke-width="1"/>
        <path d="M40.43 73.10L27.50 88.97L34.78 69.83Z" fill="#FFA500" stroke="#B8860B" stroke-width="1"/>
        <path d="M30.17 65.22L11.03 72.50L26.90 59.57Z" fill="#FFA500" stroke="#B8860B" stroke-width="1"/>
        <path d="M25.21 53.26L5.00 50.00L25.21 46.74Z" fill="#FFA500" stroke="#B8860B" stroke-width="1"/>
        <path d="M26.90 40.43L11.03 27.50L30.17 34.78Z" fill="#FFA500" stroke="#B8860B" stroke-width="1"/>
        <path d="M34.78 30.17L27.50 11.03L40.43 26.90Z" fill="#FFA500" stroke="#B8860B" stroke-width="1"/>
        <path d="M46.74 25.21L50.00 5.00L53.26 25.21Z" fill="#FFA500" stroke="#B8860B" stroke-width="1"/>
        <path d="M59.57 26.90L72.50 11.03L65.22 30.17Z" fill="#FFA500" stroke="#B8860B" stroke-width="1"/>
        <path d="M69.83 34.78L88.97 27.50L73.10 40.43Z" fill="#FFA500" stroke="#B8860B" stroke-width="1"/>
    </g>
    <!-- Core Sun -->
    <circle cx="50" cy="50" r="20" fill="#FFD700" stroke="#B8860B" stroke-width="2"/>
    <circle cx="50" cy="50" r="15" fill="none" stroke="#B8860B" stroke-width="1" opacity="0.5"/>
</svg>