<svg xmlns="http://www.w3.org/2000/svg" viewBox="0 0 24 24" fill="#000">
  <!-- Levá stopa -->
  <path d="M7.5 7c-.5-1.5.2-3 1.6-3.6 1.4-.6 2.8.1 3.2 1.6.3 1-.1 2.3-.9 3.2-.8.9-1.8 1.6-2.7 2.2-.9.7-1.6 1.3-2 2.2-.4.9-.2 2 .6 2.6.9.6 2.1.3 2.8-.6.6-.8.6-1.9 1.2-2.6.6-.7 1.7-.9 2.4-.3.6.6.5 1.6-.1 2.2-.9.9-2.2 1.5-3.5 1.8-1.4.3-2.8.1-3.8-.7-1.1-.8-1.6-2.2-1.2-3.5.4-1.3 1.4-2.2 2.3-3 .9-.8 1.8-1.5 2.1-2.5z"/>
  <!-- Pravá stopa -->
  <path d="M14.5 10.5c.5-1.4 2-2 3.3-1.4 1.3.6 1.9 2.1 1.4 3.3-.4 1-.9 1.9-1.7 2.7-.8.8-1.9 1.5-3 2.1-1.1.6-2.2 1.1-3.2.9-1-.2-1.8-1.2-1.7-2.2.1-1 1.2-1.7 2.2-1.6 1 .2 1.8 1.1 2.8 1 .9 0 1.9-.8 2-1.7.2-.9-.6-1.8-1.4-2-.8-.2-1.7.2-2.3-.3-.6-.5-.7-1.7 .6-2.8z"/>
  <!-- prsty (tečky) -->
  <circle cx="9.2" cy="3.8" r="0.7"/>
  <circle cx="10.7" cy="3.4" r="0.6"/>
  <circle cx="11.9" cy="4.1" r="0.5"/>
  <circle cx="7.7" cy="4.5" r="0.6"/>
  <circle cx="16.9" cy="8.6" r="0.6"/>
  <circle cx="18.2" cy="9.3" r="0.5"/>
  <circle cx="19" cy="10.4" r="0.4"/>
  <circle cx="16.1" cy="7.6" r="0.5"/>
</svg>
